<svg width="81" height="48" viewBox="0 0 81 48" fill="none" xmlns="http://www.w3.org/2000/svg">
<g clip-path="url(#clip0_250_560)">
<path d="M74.9116 8.49329C75.2595 8.47403 75.6066 8.54407 75.9197 8.6967C76.2327 8.84934 76.5011 9.07946 76.6993 9.36504C77.0791 9.91531 77.2716 10.7359 77.2716 11.804V21.7121H80.9901V11.0902C80.9901 9.03698 80.492 7.43745 79.5096 6.33604C78.5344 5.2433 77.1819 4.6892 75.4896 4.6892C74.7868 4.70066 74.0906 4.82603 73.4283 5.06039C72.7567 5.27531 72.1362 5.62439 71.6047 6.08628L71.2029 6.44673V4.67822H67.4844V21.7121H71.2029V13.3779C71.2029 11.7843 71.5106 10.5642 72.1174 9.75135C72.7407 8.91657 73.6807 8.49329 74.9116 8.49329Z" fill="white"/>
<path d="M26.9133 8.18082C25.4579 8.29761 24.4421 8.67709 23.866 9.31925C23.2896 9.96146 23.0014 11.1193 23.0016 12.7929V21.7121H19.251V4.67822H22.7672V6.7797C23.2614 6.12051 23.8971 5.5795 24.6278 5.19613C25.3395 4.85193 26.1224 4.67943 26.9133 4.69258V8.18082Z" fill="white"/>
<path d="M19.0987 41.1326C18.4212 42.3793 17.3932 43.4021 16.1408 44.0753C14.209 45.1038 12.0964 45.3535 10.2376 45.3535C8.37873 45.3535 5.99821 45.1249 4.01014 44.0753C2.7587 43.4033 1.73281 42.3801 1.05968 41.1326C0.336074 39.7686 -0.028655 38.2441 -0.000431166 36.7016L0.0163916 28.3594L3.78887 28.344V35.379C3.78887 37.2699 4.06982 38.8152 4.90266 39.8099C5.70195 40.7646 8.41796 41.5696 10.2376 41.5696C12.0669 41.5696 14.4841 40.9965 15.2483 39.8099C15.9489 38.7221 16.3547 37.2699 16.3547 35.379V28.3335H20.1018V36.7016C20.1476 38.2392 19.8026 39.7634 19.0987 41.1326Z" fill="white"/>
<path d="M57.9885 45.0871C57.8193 44.796 57.578 44.5531 57.2876 44.3815C56.9938 44.2055 56.6569 44.1139 56.314 44.1168C55.9808 44.1166 55.654 44.2082 55.3698 44.3815C55.078 44.5543 54.8365 44.7999 54.669 45.0941C54.5001 45.3817 54.4111 45.7089 54.4111 46.0421C54.4123 46.3821 54.5011 46.716 54.669 47.0119C54.8368 47.3079 55.0781 47.556 55.3698 47.7324C55.6541 47.9056 55.9809 47.997 56.314 47.9967C56.6568 47.9997 56.9938 47.9083 57.2876 47.7324C57.5793 47.5593 57.8208 47.3136 57.9884 47.0194C58.1601 46.7223 58.2493 46.3849 58.2467 46.0421C58.2486 45.7064 58.1594 45.3764 57.9885 45.0871Z" fill="white"/>
<path d="M11.7189 27.3524C11.5498 27.0614 11.3084 26.8184 11.0181 26.6469C10.7243 26.4709 10.3873 26.3792 10.0445 26.3821C9.71129 26.382 9.38449 26.4736 9.10027 26.6469C8.8085 26.8197 8.56695 27.0653 8.39944 27.3594C8.23056 27.6471 8.14157 27.9743 8.1416 28.3075C8.14279 28.6474 8.23157 28.9814 8.39942 29.2773C8.56728 29.5733 8.8086 29.8214 9.10027 29.9978C9.38452 30.1709 9.71132 30.2624 10.0445 30.2621C10.3873 30.2651 10.7242 30.1737 11.0181 29.9978C11.3098 29.8246 11.5513 29.5789 11.7189 29.2848C11.8906 28.9876 11.9797 28.6503 11.9772 28.3075C11.9791 27.9718 11.8898 27.6418 11.7189 27.3524Z" fill="white"/>
<path d="M60.4219 46.0518C60.4219 41.5841 60.4303 32.7996 60.4303 28.3318H64.1774V38.0108H70.5184V35.1117C70.5184 31.1538 71.5073 28.3487 76.2867 28.3487H80.9996V31.8173H77.216C75.3588 31.8494 75.191 31.8135 74.7239 32.264C74.3077 32.7444 74.2656 34.4899 74.2656 35.4794V38.0108H80.9996V41.479H64.1774L64.169 48.0001L60.4219 46.0518Z" fill="white"/>
<path d="M45.4427 9.75691C44.9779 8.6849 44.2915 7.72256 43.4282 6.93271C42.7016 6.24574 41.845 5.70989 40.9082 5.35645C39.9391 4.99262 38.9111 4.80955 37.8755 4.81639C36.932 4.80137 35.9922 4.93688 35.0918 5.21778C34.2667 5.49347 33.5012 5.9218 32.8356 6.48029V1.9624L29.1436 0V21.7121H32.8356V19.9371C33.5387 20.4992 34.331 20.9407 35.1798 21.2434C36.0377 21.5365 36.9393 21.6821 37.8462 21.6739C38.8242 21.6803 39.7958 21.5173 40.7178 21.1923C41.6038 20.8784 42.4235 20.4033 43.1352 19.7911C44.0879 18.9718 44.8511 17.9564 45.3721 16.8151C45.8931 15.6737 46.1595 14.4334 46.1532 13.1795C46.1571 12.0019 45.9152 10.8364 45.4427 9.75691ZM37.6581 17.9827C37.4831 17.9821 37.3084 17.9721 37.1345 17.9526C36.0457 17.8912 35.0239 17.4094 34.2861 16.6094C34.1301 16.445 33.9858 16.27 33.8543 16.0857C33.1108 15.1055 32.7789 13.8758 32.9289 12.6564C33.0788 11.437 33.6988 10.3234 34.6578 9.55104C35.3669 8.94035 36.2561 8.57609 37.1913 8.51326C37.3449 8.49837 37.5004 8.48977 37.6581 8.48977C38.9217 8.48977 40.1336 8.98984 41.0271 9.87997C41.9206 10.7701 42.4226 11.9774 42.4226 13.2362C42.4226 14.495 41.9206 15.7023 41.0271 16.5925C40.1336 17.4826 38.9217 17.9827 37.6581 17.9827Z" fill="white"/>
<path d="M64.621 9.89103C64.1839 8.85988 63.5473 7.9245 62.7476 7.13822C61.9712 6.36442 61.0504 5.74925 60.0371 5.32731C59.0372 4.91232 57.9646 4.69921 56.8815 4.70035C55.4884 4.6832 54.1129 5.01103 52.8785 5.65439C51.6441 6.29775 50.5894 7.2365 49.8092 8.38631C49.3401 9.07433 48.9789 9.82952 48.738 10.6259C48.1886 12.5261 48.2697 14.5521 48.9691 16.4027C49.368 17.4147 49.9605 18.3397 50.7138 19.1264C51.4781 19.9583 52.4123 20.6175 53.4537 21.0597C54.5258 21.503 55.6769 21.7252 56.8376 21.713C57.9678 21.7153 59.0865 21.487 60.1249 21.0422C62.1883 20.1446 63.8162 18.4768 64.659 16.3969C65.0675 15.3473 65.2731 14.2303 65.2651 13.1046C65.2682 12.0013 65.0492 10.9086 64.621 9.89103ZM56.841 17.9826C56.1579 17.9838 55.4824 17.8387 54.8605 17.557C54.2386 17.2754 53.6847 16.8637 53.2365 16.3501C52.7883 15.8365 52.4563 15.2328 52.2628 14.5801C52.0694 13.9274 52.0191 13.2409 52.1154 12.5671C52.2117 11.8933 52.4523 11.248 52.8209 10.675C53.1895 10.102 53.6775 9.61472 54.2518 9.24611C54.8261 8.87751 55.4733 8.63624 56.1494 8.53869C56.8255 8.44113 57.5147 8.48956 58.1704 8.68069C58.191 8.68657 58.2124 8.69048 58.2327 8.69666C59.3246 9.02891 60.2605 9.74071 60.8699 10.7025C61.4793 11.6643 61.7218 12.8121 61.5532 13.937C61.3846 15.0619 60.8162 16.0891 59.9513 16.8316C59.0865 17.5741 57.9827 17.9825 56.841 17.9826Z" fill="white"/>
<path d="M13.3578 4.67822V7.13705C12.8597 6.36604 12.1504 5.7532 11.3138 5.37101C10.3599 4.96002 9.32757 4.76081 8.28856 4.78721C7.16032 4.76992 6.03984 4.97579 4.99202 5.3929C3.97932 5.82181 3.07025 6.46124 2.32565 7.26841C1.58307 8.0374 1.0005 8.94511 0.611467 9.93929C0.208883 10.9621 0.00502389 12.0517 0.0107336 13.1503C-0.0189571 14.2652 0.17795 15.3745 0.589617 16.4116C1.00128 17.4487 1.61921 18.3922 2.40625 19.1854C3.17862 19.9797 4.10798 20.6058 5.1356 21.024C6.16322 21.4423 7.26676 21.6437 8.37648 21.6155C9.44816 21.6533 10.5153 21.4591 11.5044 21.0462C12.3105 20.6755 12.9757 20.0563 13.4016 19.2802V21.7121H17.0204V4.68173L13.3578 4.67822ZM8.37304 17.9826C7.10941 17.9826 5.89754 17.4825 5.00401 16.5924C4.11049 15.7023 3.60852 14.495 3.60852 13.2362C3.60852 11.9773 4.11049 10.7701 5.00401 9.87993C5.89754 8.9898 7.10941 8.48973 8.37304 8.48973C8.53692 8.48975 8.7007 8.49811 8.86372 8.51477C9.15031 8.54094 9.43335 8.59706 9.70816 8.68218C10.809 9.00204 11.757 9.70678 12.3782 10.667C12.9994 11.6272 13.252 12.7784 13.0897 13.9092C12.9273 15.0401 12.3609 16.0746 11.4945 16.8229C10.6281 17.5712 9.51973 17.9829 8.37304 17.9826Z" fill="white"/>
<path d="M54.5276 28.3152V38.0171H39.306V35.3955C39.306 34.2845 39.3734 33.5058 38.9694 32.1761C38.6376 30.9985 38.0365 29.9136 37.2131 29.0063C36.1564 27.8933 34.814 27.0895 33.3315 26.6821C32.4405 26.456 31.5228 26.3511 30.6034 26.3701C29.6255 26.3637 28.6538 26.5265 27.7318 26.8513C26.8459 27.1649 26.0261 27.6396 25.314 28.251C24.3616 29.0711 23.5987 30.0869 23.0778 31.2286C22.5568 32.3702 22.2901 33.6107 22.296 34.8648C22.2921 36.0418 22.5344 37.2067 23.0074 38.2854C23.4721 39.3577 24.1583 40.3205 25.0213 41.1111C25.7472 41.7985 26.6042 42.334 27.5416 42.6858C28.5103 43.0504 29.5385 43.2333 30.5741 43.2253C31.5175 43.2412 32.4574 43.1063 33.358 42.8257C34.1833 42.5499 34.9489 42.1215 35.6149 41.5631L35.6065 46.0642L39.2976 47.9876L39.3061 41.4843H58.2453V28.3181L54.5276 28.3152ZM30.6824 39.5681C29.7401 39.5681 28.8189 39.2898 28.0354 38.7682C27.2519 38.2467 26.6412 37.5054 26.2806 36.6381C25.9199 35.7708 25.8256 34.8165 26.0094 33.8958C26.1932 32.975 26.647 32.1293 27.3133 31.4655C27.9797 30.8017 28.8286 30.3496 29.7528 30.1665C30.6771 29.9833 31.6351 30.0773 32.5057 30.4366C33.3763 30.7958 34.1204 31.4042 34.6439 32.1847C35.1675 32.9653 35.4469 33.8829 35.4469 34.8217C35.4469 35.445 35.3237 36.0622 35.0842 36.6381C34.8448 37.2139 34.4939 37.7372 34.0514 38.1779C33.609 38.6187 33.0838 38.9683 32.5057 39.2068C31.9277 39.4454 31.3081 39.5681 30.6824 39.5681Z" fill="white"/>
</g>
<defs>
<clipPath id="clip0_250_560">
<rect width="81" height="48" fill="white"/>
</clipPath>
</defs>
</svg>
